<?xml version="1.0" standalone="no"?><!DOCTYPE svg PUBLIC "-//W3C//DTD SVG 1.1//EN" "http://www.w3.org/Graphics/SVG/1.1/DTD/svg11.dtd"><svg t="1753106013286" class="icon" viewBox="0 0 1024 1024" version="1.1" xmlns="http://www.w3.org/2000/svg" p-id="7995" id="mx_n_1753106013287" xmlns:xlink="http://www.w3.org/1999/xlink" width="81" height="81"><path d="M398.597172 38.573253c-24.308364-10.746828-49.894141-13.049535-75.994505-7.928243-49.383434 9.721535-90.32404 50.403556-83.157334 105.671111 6.4 47.848727 25.585778 89.55604 59.106263 125.120647 6.909414 7.420121 14.070949 14.328242 21.494949 21.748363-1.345939 0.575354-1.400242 1.296808-2.853494 1.945859 70.4 31.46602 199.907556 62.227394 390.975353-2.823758a1.952323 1.952323 0 0 1 0.28703-0.402101l7.677414-6.908121c25.843071-23.793778 49.126141-51.430141 61.40897-83.92404 5.884121-15.864242 7.418828-22.516364 11.514828-37.359192 7.677414-46.312727-1.025293-74.202505-29.681777-97.742869-38.636606-31.468606-82.389333-35.307313-128.702061-16.883071-3.328 1.277414-5.373414 2.297535-8.444121-0.768-10.753293-9.784889-22.68703-17.812687-35.366788-24.098909H440.777697c-12.06303 6.006949-23.430465 13.61196-33.736404 22.816324-2.812121 2.561293-4.862707 3.072-8.444121 1.536z" fill="#f05f4d" p-id="7996"></path><path d="M208.486141 1016.189414c204.696566-0.509414 409.135838 0 613.833697-0.257293 65.757091 0 116.419232-28.399192 153.010425-80.08404 18.676364-26.355071 27.379071-56.036848 32.495192-87.253334 3.947313-24.641939 6.269414-49.314909 6.81503-73.954262v-22.158222c-0.86497-39.824808-6.494384-79.517737-17.561859-118.816324-37.611313-135.100768-118.212525-239.242343-244.353293-310.374141-14.585535-8.186828-29.681778-14.837657-44.77802-22.257778 0-0.153859 0.094384-0.396929 0.223677-0.623192-191.067798 65.051152-321.868283 34.289778-392.268283 2.823758-0.482263 0.215919-0.976162 0.422788-1.485576 0.614141C144.006465 378.816646 29.118061 541.296485 15.556525 726.291394A532.416646 532.416646 0 0 0 14.222222 753.347232v23.568808c0.810667 34.015677 5.227313 67.801212 14.13301 101.360485 20.979071 79.065212 93.388283 138.171475 180.130909 137.912889z m184.691071-525.115475c10.167596 29.243475 18.115232 54.345697 23.836445 75.320889l-56.252768 16.209455c-6.040566-23.837737-15.098828-47.672889-27.173495-71.508041l59.589818-20.022303z m-83.426263 286.030869v-47.671596h177.338182c3.174141-12.074667 5.244121-23.515798 6.19701-34.324687 7.941172 0.321939 18.592323 1.118384 31.940526 2.384162-5.40703-6.672808-13.191758-14.301091-23.359354-22.882263 33.682101-9.534061 60.379798-20.02101 80.087919-31.463434-8.900525-13.346909-21.295838-27.804444-37.183353-43.381657l46.718707-33.370505c11.75402 12.395313 22.882263 26.383515 33.370505 41.951677 11.75402-13.980444 22.405172-31.940525 31.939232-53.868606h-78.657939c-16.208162 22.569374-37.348848 44.653899-63.40396 66.262626-10.807596-9.846949-21.45099-18.115232-31.939232-24.789333v117.272566h-56.252768v-79.135031c-28.602182 17.481697-48.945131 33.056323-61.019798 46.718707-3.501253 4.454141-6.517657 6.672808-9.056969 6.672808-2.547071 0-5.408323-2.382869-8.581172-7.149899l-30.033455-48.147394 108.691394-55.299878v-112.982627h50.531556c9.213414 0 13.824 2.227717 13.824 6.674101 0 2.227717-0.796444 4.931232-2.382869 8.104081-3.814141 8.581172-5.719919 25.108687-5.719919 49.578667v50.531555c37.818182-33.049859 64.512-75.635071 80.087919-127.759515a880.663273 880.663273 0 0 1 44.57503 11.680324c14.778182 4.289939 23.276606 7.314101 25.504324 9.056969 2.21996 1.750626 3.335758 3.978343 3.335757 6.674101 0 2.703515-2.384162 5.802667-7.149899 9.296162-4.76703 3.501253-10.651152 9.69697-17.639434 18.59103h123.946667c-11.761778 51.48703-31.388444 93.600323-58.873536 126.330828-27.494141 32.735677-64.283152 58.158545-110.359273 76.273778-1.273535 2.227717-3.263354 5.004929-5.959111 8.343273-2.704808 3.335758-5.004929 7.389091-6.912 12.154828h184.966465v47.671596H580.526545c40.678141 39.090424 95.656081 61.97398 164.944162 68.648081-15.896566 18.115232-28.44703 37.339798-37.660444 57.682748-73.734465-14.943677-133.801374-52.125737-180.200728-111.551354-12.713374 22.568081-33.212768 44.013899-61.495596 64.355556-28.290586 20.335192-68.968727 36.544646-122.040888 48.624484-11.441131-18.435879-25.429333-35.753374-41.950384-51.961535 83.902061-8.901818 138.881293-34.160485 164.944161-75.79798H309.750949z" fill="#f05f4d" p-id="7997"></path></svg>