<?xml version="1.0" standalone="no"?><!DOCTYPE svg PUBLIC "-//W3C//DTD SVG 1.1//EN" "http://www.w3.org/Graphics/SVG/1.1/DTD/svg11.dtd"><svg t="1753102875561" class="icon" viewBox="0 0 1198 1024" version="1.1" xmlns="http://www.w3.org/2000/svg" p-id="4752" xmlns:xlink="http://www.w3.org/1999/xlink" width="94.763671875" height="81"><path d="M146.976 193.184l517.536 0c38.432 0 69.664-31.232 69.664-69.76l0-53.664c0-38.72-31.2-69.76-69.664-69.76l-517.536 0c-38.432 0-69.696 31.232-69.696 69.76l0 53.696c0 38.72 31.232 69.728 69.696 69.728z" fill="#d93b26" p-id="4753"></path><path d="M575.776 444.352c23.52-27.488 50.816-51.616 81.152-71.616l0-51.808c0-38.72-31.2-69.76-69.664-69.76l-517.568 0c-38.4 0-69.664 31.232-69.664 69.76l0 53.696c0 38.72 31.2 69.76 69.664 69.76l506.112 0z" fill="#d93b26" p-id="4754"></path><path d="M77.28 572.096l0 53.696c0 38.72 31.2 69.76 69.664 69.76l336.032 0c0-70.4 18.816-136.352 51.712-193.184l-387.712 0c-38.432-0.032-69.696 31.2-69.696 69.728z" fill="#d93b26" p-id="4755"></path><path d="M108.32 753.504c-38.432 0-69.664 31.232-69.664 69.76l0 53.696c0 38.72 31.2 69.76 69.664 69.76l467.456 0c-45.952-53.696-77.44-120.064-88.448-193.216l-379.008 0z" fill="#d93b26" p-id="4756"></path><path d="M869.44 367.104c-181.376 0-328.448 147.072-328.448 328.48 0 181.376 147.072 328.416 328.448 328.416 181.44 0 328.48-147.04 328.48-328.416-0.032-181.408-147.072-328.48-328.48-328.48zM1000.448 749.408c14.272 0 25.824 10.88 25.824 24.32s-11.552 24.32-25.824 24.32l-92.736 0 0 52.8c0 17.952-15.456 32.512-34.496 32.512s-34.496-14.56-34.496-32.512l0-52.8-92.736 0c-14.272 0-25.824-10.88-25.824-24.32s11.552-24.32 25.824-24.32l92.736 0 0-35.136-92.736 0c-14.272 0-25.824-10.88-25.824-24.32s11.552-24.32 25.824-24.32l92.736 0 0-27.328-93.312-89.44c-11.648-11.168-11.488-29.088 0.384-40.032s30.88-10.816 42.528 0.352l84.928 81.376 84.928-81.376c11.648-11.168 30.656-11.296 42.528-0.352 11.84 10.944 12 28.896 0.384 40.032l-93.312 89.44 0 27.328 92.736 0c14.272 0 25.824 10.88 25.824 24.32s-11.552 24.32-25.824 24.32l-92.736 0 0 35.136 92.64 0z" fill="#d93b26" p-id="4757"></path></svg>