<?xml version="1.0" standalone="no"?><!DOCTYPE svg PUBLIC "-//W3C//DTD SVG 1.1//EN" "http://www.w3.org/Graphics/SVG/1.1/DTD/svg11.dtd"><svg t="1753191301236" class="icon" viewBox="0 0 1024 1024" version="1.1" xmlns="http://www.w3.org/2000/svg" p-id="15551" xmlns:xlink="http://www.w3.org/1999/xlink" width="81" height="81"><path d="M880.832 508.352a412.352 412.352 0 0 0-411.52-437.248 412.352 412.352 0 1 0 48 821.888 270.4 270.4 0 0 1 363.52-384.64z m-423.68-282.88h66.56v295.808H206.592v-66.56h250.432V225.408z m61.44 502.784a216.96 216.96 0 0 0 209.024 224.64h21.888a216.832 216.832 0 0 0 0-433.664h-6.272a216.96 216.96 0 0 0-224.64 209.024z m211.648 80.64h-64.96a18.176 18.176 0 0 1 0-36.48h64.96v-21.248h-64.96a18.176 18.176 0 1 1 0-36.416h49.344l-28.032-36.416-30.208-43.648a18.304 18.304 0 1 1 30.208-20.8l51.968 77.44 6.272 9.408 60.8-87.36a18.304 18.304 0 0 1 30.208 20.8l-51.52 80.576h49.408a18.176 18.176 0 0 1 0 36.416h-64v21.312h64a18.176 18.176 0 0 1-0.512 36.416h-63.424v36.864a19.776 19.776 0 1 1-39.552 0v-36.864z" p-id="15552" fill="#f05f4d"></path></svg>