<?xml version="1.0" standalone="no"?><!DOCTYPE svg PUBLIC "-//W3C//DTD SVG 1.1//EN" "http://www.w3.org/Graphics/SVG/1.1/DTD/svg11.dtd"><svg t="1753190903551" class="icon" viewBox="0 0 1024 1024" version="1.1" xmlns="http://www.w3.org/2000/svg" p-id="6009" xmlns:xlink="http://www.w3.org/1999/xlink" width="81" height="81"><path d="M 643.281 443.945 c 101.164 0 183.248 -82.4017 183.248 -184.019 c 0 -101.693 -82.0835 -184.097 -183.248 -184.097 c -101.182 0 -183.192 82.4017 -183.192 184.097 c 0 101.614 82.0108 184.019 183.192 184.019 Z m -446.315 232.335 c -8.58759 0 -15.5399 6.9943 -15.5399 15.6197 V 822.629 c 0 8.62647 6.95132 15.6218 15.5399 15.6218 h 14.6701 c 8.58656 0 15.5389 -6.9943 15.5389 -15.6218 V 691.899 c 0 -8.62442 -6.95132 -15.6197 -15.5389 -15.6197 h -14.6701 Z m 7.39339 154.373 c -6.46218 0 -11.6616 -5.22091 -11.6616 -11.7148 c 0 -6.42329 5.20147 -11.7117 11.6616 -11.7117 c 6.39771 0 11.6514 5.23421 11.6514 11.7117 c 0 6.42534 -5.19737 11.7148 -11.6514 11.7148 Z m 11.5982 -129.633 c 0 6.42432 -5.20147 11.7138 -11.6514 11.7138 c -6.40999 0 -11.6616 -5.21477 -11.6616 -11.7138 c 0.052189 -6.49186 5.25058 -11.7138 11.6616 -11.7138 c 6.39669 0 11.6514 5.22193 11.6514 11.7138 Z m 212.92 -24.7395 c -8.59577 0 -15.5389 6.9943 -15.5389 15.6197 V 822.629 c 0 8.62647 6.94109 15.6218 15.5389 15.6218 h 14.6138 c 8.58349 0 15.5297 -6.9943 15.5297 -15.6218 V 691.899 c 0 -8.62442 -6.94416 -15.6197 -15.5297 -15.6197 h -14.6138 Z m 7.32892 154.373 c -6.46832 0 -11.6575 -5.22091 -11.6575 -11.7148 c 0 -6.42329 5.19021 -11.7117 11.6575 -11.7117 c 6.39771 0 11.6534 5.23421 11.6534 11.7117 c 0 6.42534 -5.20249 11.7148 -11.6534 11.7148 Z m 11.5982 -129.633 c 0 6.42432 -5.20147 11.7138 -11.6575 11.7138 c -6.4059 0 -11.6514 -5.21477 -11.6514 -11.7138 c 0.054235 -6.49186 5.24547 -11.7138 11.6514 -11.7138 c 6.41613 0 11.6575 5.22193 11.6575 11.7138 Z M 82.3321 724.82 h 84.5415 v -50.7427 c 0 -5.71824 4.65297 -10.3845 10.3395 -10.3845 h 54.2843 c 5.68549 0 10.3466 4.6673 10.3466 10.3845 v 50.7427 h 156.876 v -50.7427 c 0 -5.71824 4.64786 -10.3845 10.3559 -10.3845 h 54.2741 c 5.69163 0 10.3426 4.6673 10.3426 10.3845 v 50.7427 h 82.6801 c 8.58656 0 15.545 -6.97485 15.545 -15.6218 V 561.164 c -0.069585 -8.62442 -6.9902 -15.6197 -15.545 -15.6197 H 413.439 v -40.6785 c 0 -12.8548 -10.4449 -23.3529 -23.2505 -23.3529 H 248.52 c -12.8599 0 -23.2516 10.4971 -23.2516 23.3529 v 40.6785 H 82.3373 c -8.59986 0 -15.5389 6.9943 -15.5389 15.6197 v 148.035 c 0 8.64796 6.94006 15.6218 15.5389 15.6218 h -0.005116 Z m 158.41 -220.002 c 0 -4.28561 3.5038 -7.80885 7.77713 -7.80885 h 141.668 c 4.2723 0 7.77713 3.52324 7.77713 7.80885 v 40.6774 H 240.744 v -40.6774 h -0.002047 Z m 331.173 402.256 V 750.004 c -1.63013 0.602727 -3.33598 0.917906 -5.20147 0.917905 h -93.0237 v 95.4479 c 0 5.71517 -4.65195 10.3825 -10.3426 10.3825 h -54.2741 c -5.70493 0 -10.3559 -4.66832 -10.3559 -10.3825 v -95.3742 H 241.842 v 95.3742 c 0 5.71517 -4.64786 10.3825 -10.3466 10.3825 h -54.3376 c -5.68549 0 -10.3395 -4.66832 -10.3395 -10.3825 v -95.3742 H 71.9425 c -1.81023 0 -3.56622 -0.391926 -5.20147 -0.941441 v 157.016 c 0 8.6234 6.94006 15.6126 15.5389 15.6126 h 474.089 c 8.58759 0 15.545 -6.9902 15.545 -15.6126 l 0.001023 0.004093 Z m 149.153 -444.264 H 565.564 c -51.8775 0 -99.8133 9.28139 -138.678 35.389 v 32.2669 H 558.75 c 20.5163 0 37.1276 16.6809 37.1276 37.3057 v 320.242 c 0 20.3024 -16.114 47.1366 -36.1688 47.6503 c -0.106424 3.0341 -0.569982 6.58497 -2.87549 9.58633 c 38.1233 4.27435 56.0813 3.03308 110.501 1.4316 c 162.993 -4.79112 289.926 -62.5424 289.926 -62.5424 V 692.149 c -0.004093 -129.913 -106.813 -229.339 -236.192 -229.339 Z" fill="#f05f4d" p-id="6010"></path></svg>