<?xml version="1.0" standalone="no"?><!DOCTYPE svg PUBLIC "-//W3C//DTD SVG 1.1//EN" "http://www.w3.org/Graphics/SVG/1.1/DTD/svg11.dtd"><svg t="1753190881108" class="icon" viewBox="0 0 1024 1024" version="1.1" xmlns="http://www.w3.org/2000/svg" p-id="4875" xmlns:xlink="http://www.w3.org/1999/xlink" width="81" height="81"><path d="M838 661.7h-33c27.1-37 46.8-79.1 57.7-123.8 3.7-15-5.5-30.2-20.6-33.8-15-3.7-30.2 5.5-33.8 20.6-12.6 51.6-39.1 99-76.6 137.1H518c-10.9-46.4-52.6-81-102.2-81H254c-14.8-31.2-23.8-64.1-27-98.3h68.7c15.5 0 28-12.5 28-28s-12.5-28-28-28h-98c-15.5 0-28 12.5-28 28 0 43.8 7.9 86.2 23.4 126.3H124c-15.5 0-28 12.5-28 28v234.9c0 13 9 24.4 21.7 27.3l373.2 86.1c7.7 1.8 15.5 2.7 23.3 2.7 12.1 0 24.1-2.1 35.6-6.3L869 836.2c35.3-13 59-46.9 59-84.5 0-49.7-40.4-90-90-90z m11.7 122L530.5 900.8c-8.7 3.2-18 3.8-27 1.7L152 821.4V636.7h263.8c27 0 49 22 49 49s-22 49-49 49H311c-15.5 0-28 12.5-28 28s12.5 28 28 28h104.8c46.7 0 86.4-30.7 100-72.9H838c18.8 0 34 15.3 34 34 0 14.1-9 27-22.3 31.9zM191.1 366.1c15 3.7 30.2-5.5 33.8-20.6 15.4-63.1 52.1-120.4 103.3-161.1 25.6-20.4 54.1-36.2 84.8-47.1 31.7-11.3 65.1-17 99.1-17 78.9 0 153.1 30.7 209 86.5 49.2 49.2 78.9 112.6 85.2 181h-68.7c-15.5 0-28 12.5-28 28s12.5 28 28 28h98c15.5 0 28-12.5 28-28 0-47.4-9.3-93.5-27.6-136.8-17.7-41.9-43-79.4-75.3-111.7S690.8 109.7 649 92c-43.5-18.4-89.6-27.7-137-27.7-40.4 0-80.1 6.8-117.8 20.2-36.5 13-70.4 31.8-100.9 56.1-60.9 48.4-104.5 116.5-122.8 191.6-3.7 15.1 5.5 30.2 20.6 33.9z" p-id="4876" fill="#f05f4d"></path><path d="M516.6 509c-7.7 0-15.4-2.9-21.2-8.8l-91.9-91.9c-11.7-11.7-11.7-30.7 0-42.4l91.9-91.9c11.7-11.7 30.7-11.7 42.4 0l91.9 91.9c11.7 11.7 11.7 30.7 0 42.4l-91.9 91.9c-5.8 5.8-13.5 8.8-21.2 8.8z m-55.2-121.9l55.2 55.2 55.2-55.2-55.2-55.2-55.2 55.2z m148.5 1.4z m-19.8-19.8z" fill="#f05f4d" p-id="4877"></path></svg>